<svg xmlns="http://www.w3.org/2000/svg" xmlns:xlink="http://www.w3.org/1999/xlink" width="500" zoomAndPan="magnify" viewBox="0 0 375 374.999991" height="500" preserveAspectRatio="xMidYMid meet" version="1.0"><path fill="#fad362" d="M 187.5 232.996094 C 212.585938 232.996094 232.996094 212.582031 232.996094 187.5 C 232.996094 162.414062 212.585938 142.003906 187.5 142.003906 C 162.414062 142.003906 142.003906 162.414062 142.003906 187.5 C 142.003906 212.582031 162.414062 232.996094 187.5 232.996094 " fill-opacity="1" fill-rule="nonzero"/><path fill="#fad362" d="M 187.5 126.941406 C 220.890625 126.941406 248.054688 154.105469 248.054688 187.5 C 248.054688 220.890625 220.890625 248.054688 187.5 248.054688 C 154.105469 248.054688 126.941406 220.890625 126.941406 187.5 C 126.941406 154.105469 154.105469 126.941406 187.5 126.941406 Z M 254.347656 109.375 C 260.570312 109.375 265.625 114.433594 265.625 120.648438 C 265.625 126.871094 260.570312 131.929688 254.347656 131.929688 C 248.128906 131.929688 243.070312 126.871094 243.070312 120.648438 C 243.070312 114.433594 248.128906 109.375 254.347656 109.375 Z M 86.378906 262.714844 C 88.855469 269.085938 91.8125 273.628906 96.589844 278.410156 C 101.371094 283.1875 105.917969 286.144531 112.28125 288.621094 C 116.960938 290.441406 123.964844 292.601562 136.726562 293.183594 C 149.980469 293.789062 153.953125 293.917969 187.5 293.917969 C 221.042969 293.917969 225.019531 293.789062 238.273438 293.183594 C 251.03125 292.601562 258.039062 290.441406 262.714844 288.621094 C 269.082031 286.144531 273.628906 283.1875 278.40625 278.410156 C 283.1875 273.628906 286.144531 269.085938 288.621094 262.714844 C 290.441406 258.035156 292.601562 251.027344 293.183594 238.273438 C 293.789062 225 293.917969 221.019531 293.917969 187.5 C 293.917969 153.976562 293.789062 150 293.183594 136.722656 C 292.601562 123.972656 290.441406 116.964844 288.621094 112.28125 C 286.144531 105.914062 283.1875 101.371094 278.40625 96.589844 C 273.628906 91.808594 269.082031 88.855469 262.714844 86.378906 C 258.039062 84.5625 251.03125 82.398438 238.273438 81.816406 C 225.003906 81.210938 221.023438 81.082031 187.5 81.082031 C 153.976562 81.082031 149.996094 81.210938 136.726562 81.816406 C 123.964844 82.398438 116.960938 84.5625 112.285156 86.378906 C 105.917969 88.855469 101.371094 91.808594 96.589844 96.589844 C 91.8125 101.371094 88.855469 105.914062 86.378906 112.28125 C 84.558594 116.964844 82.398438 123.976562 81.816406 136.726562 C 81.210938 150.015625 81.082031 153.996094 81.082031 187.5 C 81.082031 221.003906 81.210938 224.984375 81.816406 238.273438 C 82.398438 251.023438 84.558594 258.035156 86.378906 262.714844 " fill-opacity="1" fill-rule="nonzero"/><path fill="#fad362" d="M 66.769531 136.039062 C 67.300781 124.378906 69.019531 115.371094 72.339844 106.828125 C 75.542969 98.582031 79.738281 92.140625 85.9375 85.9375 C 92.144531 79.734375 98.582031 75.542969 106.828125 72.339844 C 115.371094 69.015625 124.378906 67.300781 136.039062 66.765625 C 149.335938 66.160156 153.757812 66.015625 187.5 66.015625 C 221.242188 66.015625 225.664062 66.160156 238.960938 66.765625 C 250.621094 67.300781 259.628906 69.015625 268.171875 72.339844 C 276.414062 75.542969 282.859375 79.734375 289.058594 85.9375 C 295.261719 92.140625 299.457031 98.582031 302.660156 106.828125 C 305.980469 115.367188 307.699219 124.375 308.230469 136.039062 C 308.839844 149.335938 308.980469 153.753906 308.980469 187.5 C 308.980469 221.242188 308.839844 225.664062 308.230469 238.960938 C 307.699219 250.621094 305.980469 259.632812 302.660156 268.175781 C 299.457031 276.414062 295.261719 282.859375 289.058594 289.058594 C 282.859375 295.261719 276.414062 299.457031 268.171875 302.660156 C 259.632812 305.980469 250.621094 307.699219 238.960938 308.230469 C 225.648438 308.839844 221.222656 308.980469 187.5 308.980469 C 153.777344 308.980469 149.347656 308.839844 136.039062 308.230469 C 124.378906 307.699219 115.371094 305.980469 106.828125 302.660156 C 98.582031 299.457031 92.140625 295.261719 85.9375 289.058594 C 79.738281 282.859375 75.542969 276.414062 72.339844 268.171875 C 69.019531 259.628906 67.300781 250.621094 66.769531 238.960938 C 66.160156 225.671875 66.019531 221.25 66.019531 187.5 C 66.019531 153.75 66.160156 149.328125 66.769531 136.039062 Z M 187.5 375 C 291.050781 375 375 291.050781 375 187.5 C 375 83.945312 291.050781 0 187.5 0 C 83.945312 0 0 83.945312 0 187.5 C 0 291.050781 83.945312 375 187.5 375 " fill-opacity="1" fill-rule="nonzero"/></svg>