<svg xmlns="http://www.w3.org/2000/svg" xmlns:xlink="http://www.w3.org/1999/xlink" width="500" zoomAndPan="magnify" viewBox="0 0 375 374.999991" height="500" preserveAspectRatio="xMidYMid meet" version="1.0"><path fill="#fad362" d="M 187.5 0 C 83.953125 0 0 83.953125 0 187.5 C 0 291.046875 83.953125 375 187.5 375 C 291.046875 375 375 291.046875 375 187.5 C 375 83.953125 291.046875 0 187.5 0 Z M 286.515625 273.582031 L 271.5 288.597656 C 268.820312 291.273438 260.972656 292.945312 260.71875 292.945312 C 213.226562 293.359375 167.496094 274.703125 133.894531 241.105469 C 100.203125 207.390625 81.527344 161.5 82.03125 113.847656 C 82.03125 113.824219 83.746094 106.199219 86.425781 103.546875 L 101.441406 88.53125 C 106.933594 83.015625 117.484375 80.519531 124.878906 82.992188 L 128.035156 84.046875 C 135.40625 86.515625 143.144531 94.664062 145.179688 102.171875 L 152.734375 129.890625 C 154.769531 137.421875 152.023438 148.132812 146.53125 153.625 L 136.503906 163.652344 C 146.347656 200.089844 174.933594 228.675781 211.371094 238.539062 L 221.398438 228.515625 C 226.914062 223 237.625 220.253906 245.132812 222.289062 L 272.851562 229.867188 C 280.355469 231.925781 288.503906 239.617188 290.976562 246.988281 L 292.03125 250.191406 C 294.480469 257.558594 292.007812 268.113281 286.515625 273.582031 Z M 286.515625 273.582031 " fill-opacity="1" fill-rule="nonzero"/></svg>