<svg xmlns="http://www.w3.org/2000/svg" xmlns:xlink="http://www.w3.org/1999/xlink" width="500" zoomAndPan="magnify" viewBox="0 0 375 374.999991" height="500" preserveAspectRatio="xMidYMid meet" version="1.0"><defs><clipPath id="81e6b49e34"><path d="M 67 0 L 375 0 L 375 375 L 67 375 Z M 67 0 " clip-rule="nonzero"/></clipPath><clipPath id="594b4469bb"><path d="M 22.566406 308.734375 L 177.910156 -134.320312 L 599.027344 13.328125 L 443.683594 456.386719 Z M 22.566406 308.734375 " clip-rule="nonzero"/></clipPath><clipPath id="3a0f453394"><path d="M 22.566406 308.734375 L 177.910156 -134.320312 L 599.027344 13.328125 L 443.683594 456.386719 Z M 22.566406 308.734375 " clip-rule="nonzero"/></clipPath></defs><g clip-path="url(#81e6b49e34)"><g clip-path="url(#594b4469bb)"><g clip-path="url(#3a0f453394)"><path fill="#e8edfc" d="M 322.324219 -82.445312 C 272.746094 -97.789062 229.808594 -70.03125 224.109375 -65.914062 C 196.574219 -46.007812 177.957031 -16.5 170.269531 16.363281 C 165.765625 35.707031 163.414062 55.570312 157.164062 74.425781 C 137.351562 134.515625 71.242188 169.738281 67.980469 237.671875 C 66.078125 277.117188 90.234375 327.019531 128.902344 343.574219 C 157.246094 355.730469 185.667969 342.011719 213.59375 335.195312 C 261.230469 323.59375 307.578125 340.984375 348.519531 365.234375 C 370.054688 378 392.882812 390.679688 417.882812 392.191406 C 445.710938 393.855469 472.535156 373.578125 479.984375 346.871094 C 488.679688 315.742188 464.246094 285.945312 468.800781 253.125 C 472.707031 225.054688 493.195312 206.457031 503.25 181.019531 C 510.757812 162.007812 510.363281 140.402344 504.117188 120.941406 C 494.664062 91.664062 476.925781 71.65625 449.628906 59.085938 C 427.746094 49.015625 403.207031 41.910156 395.398438 16.148438 C 392.066406 5.144531 391.28125 -6.460938 388.289062 -17.585938 C 379.734375 -49.605469 353.355469 -72.824219 322.324219 -82.445312 Z M 322.324219 -82.445312 " fill-opacity="1" fill-rule="nonzero"/></g></g></g></svg>